<?xml version="1.0" encoding="UTF-8" standalone="no"?>
<svg
   version="1.1"
   id="Capa_1"
   x="0px"
   y="0px"
   viewBox="0 0 654.758 654.758"
   style="enable-background:new 0 0 654.758 654.758;"
   xml:space="preserve"
   xmlns="http://www.w3.org/2000/svg"
   xmlns:svg="http://www.w3.org/2000/svg"><defs
   id="defs9" />
<g
   id="g4"
   transform="matrix(1,0,0,-1,0,654.759)"
   style="fill:#ffffff">
<path
   d="m 443.398,75.359 17.515,-29.437 c 3.974,-7.139 12.732,-9.567 19.87,-5.593 7.138,3.974 9.567,12.732 5.593,19.87 l -17.515,29.437 c -2.355,4.784 -7.948,7.139 -12.732,7.139 -2.355,0 -4.784,-0.81 -7.138,-1.619 -7.212,-3.901 -9.567,-12.585 -5.593,-19.797 z M 185.896,89.71 c 2.355,4.784 7.948,7.139 12.732,7.139 2.355,0 4.784,-0.81 7.139,-1.619 7.139,-3.974 9.567,-12.732 5.593,-19.87 L 193.845,45.923 c -3.974,-7.139 -12.732,-9.567 -19.87,-5.593 -7.138,3.974 -9.567,12.732 -5.593,19.87 z M 327.342,62.701 c 7.948,0 14.277,-6.329 14.277,-14.277 V 14.277 C 341.619,6.329 335.29,0 327.342,0 319.394,0 313.065,6.329 313.065,14.277 v 34.147 c -0.81,7.875 5.519,14.277 14.277,14.277 z M 69.84,290.766 H 35.693 c -7.948,0 -14.277,6.329 -14.277,14.277 0,7.948 6.329,14.277 14.277,14.277 H 69.84 c 7.948,0 14.277,-6.329 14.277,-14.277 0,-7.948 -6.329,-14.277 -14.277,-14.277 z m 549.225,0 h -34.147 c -7.948,0 -14.277,6.329 -14.277,14.277 0,7.948 6.329,14.277 14.277,14.277 h 34.147 c 7.948,0 14.277,-6.329 14.277,-14.277 0,-7.948 -6.329,-14.277 -14.277,-14.277 z M 592.792,152.485 c -3.974,-7.139 -12.732,-9.567 -19.87,-5.593 l -29.437,17.515 c -7.138,3.974 -9.567,12.732 -5.593,19.87 2.355,4.784 7.948,7.139 12.732,7.139 2.355,0 4.784,-0.81 7.138,-1.619 l 29.437,-17.515 c 7.212,-3.901 9.567,-12.659 5.593,-19.797 z m -77.861,151.013 c 0,32.602 -8.758,64.394 -24.654,93.022 -0.809,2.355 -1.619,3.974 -3.165,5.593 l -1.619,2.355 c -6.329,9.567 -12.732,19.061 -20.68,27.009 -27.818,38.931 -42.095,72.342 -41.359,93.758 v 0.81 c 0,1.619 0.81,3.974 0.81,6.329 v 68.368 c 0,30.173 -24.654,54.017 -54.017,54.017 h -88.164 c -30.173,0 -54.017,-24.654 -54.017,-54.017 v -68.368 c 0,-1.619 0,-2.355 0,-3.974 0,-0.81 0,-2.355 0,-3.164 0.81,-20.68 -13.541,-53.281 -39.74,-91.403 -8.758,-9.567 -17.515,-19.87 -23.844,-31.792 -0.809,-1.619 -1.619,-2.355 -2.355,-3.974 -16.706,-28.628 -25.463,-61.229 -25.463,-93.758 0,-104.134 85.074,-189.134 189.134,-189.134 104.059,-0.811 189.133,84.189 189.133,188.323 z M 394.9,540.32 H 257.429 v 27.009 H 394.9 V 540.32 Z m 0,62.039 v -5.593 H 257.429 v 5.593 c 1.619,12.732 11.922,22.225 24.654,22.225 h 88.238 c 12.657,0 23.034,-9.493 24.579,-22.225 z m 90.593,-298.861 c 0,-88.238 -71.532,-159.771 -159.771,-159.771 -88.239,0 -159.77,71.533 -159.77,159.771 0,28.628 7.948,56.446 22.225,81.1 v 0 c 0,0 0,0 0,0.809 6.329,10.303 13.541,19.87 21.489,28.628 0.81,0.81 0.81,0.81 1.619,1.619 26.199,37.385 41.359,69.177 45.333,95.377 H 395.71 c 4.784,-32.602 27.009,-69.913 46.879,-97.732 0,-0.81 0.81,-0.81 1.619,-1.619 7.139,-7.139 13.541,-15.896 18.251,-24.654 0,-0.81 0.81,-0.81 0.81,-1.619 0,-0.81 0.81,-0.809 0.81,-1.619 14.276,-23.844 21.414,-51.662 21.414,-80.29 z M 111.199,164.407 81.762,146.892 c -7.139,-3.974 -15.896,-1.619 -19.87,5.593 -3.974,7.139 -1.619,15.896 5.593,19.87 l 29.437,17.515 c 2.355,1.619 4.784,1.619 7.139,1.619 4.784,0 10.303,-2.355 12.732,-7.139 3.9,-7.211 1.545,-15.969 -5.594,-19.943 z"
   id="path2"
   style="fill:#ffffff" />
</g>
<path
   style="fill:#ffffff;stroke:#ffffff;stroke-width:0;stroke-miterlimit:3;stroke-dasharray:none;stroke-opacity:1"
   d="m 281.19598,507.41606 c -12.30746,-3.67645 -23.84552,-7.08989 -25.64008,-7.58544 -2.18772,-0.60413 -11.92081,-8.04662 -29.53795,-22.58646 l -26.2751,-21.68541 -16.94932,-31.19552 -16.94934,-31.19554 -1.66141,-31.07077 -1.66143,-31.07075 8.34663,-30.61316 8.34664,-30.61314 21.03977,-28.81235 c 16.86762,-23.09895 23.63751,-33.276 34.13987,-51.32203 11.76224,-20.21083 13.5796,-23.91196 17.79518,-36.24056 l 4.69509,-13.73089 h 69.97124 69.97124 l 8.79497,25.4359 8.79496,25.43594 19.36729,29.26254 c 16.19638,24.47162 22.21684,34.56948 36.77233,61.67647 l 17.40509,32.41393 0.5912,10.35444 c 0.32515,5.69495 0.62142,16.22947 0.65835,23.41005 0.0628,12.2058 -0.2421,14.66729 -4.68423,37.81622 l -4.75138,24.76063 -15.66291,23.88943 -15.66292,23.88938 -25.60522,20.4634 -25.60526,20.46338 -28.03615,7.64051 -28.03615,7.64054 -18.79686,-0.0732 -18.7969,-0.0731 z"
   id="path369" /></svg>
